<svg width="36" height="35" viewBox="0 0 36 35" fill="none" xmlns="http://www.w3.org/2000/svg">
<path d="M12.9532 0.163909C13.08 0.241668 13.1906 0.344248 13.2787 0.465789C13.3667 0.58733 13.4306 0.725451 13.4665 0.872262C13.5024 1.01907 13.5098 1.1717 13.4881 1.32142C13.4665 1.47114 13.4162 1.61502 13.3403 1.74484L7.61175 11.5231H28.3882L22.6575 1.74484C22.5041 1.48264 22.4588 1.16877 22.5313 0.872283C22.6039 0.5758 22.7885 0.32099 23.0445 0.163909C23.3005 0.006828 23.6069 -0.0396571 23.8964 0.0346797C24.1859 0.109017 24.4346 0.298086 24.588 0.560295L31.0117 11.5231H33.75C34.3467 11.5231 34.919 11.7659 35.341 12.1981C35.7629 12.6303 36 13.2165 36 13.8277V16.1323C36 16.7435 35.7629 17.3297 35.341 17.7619C34.919 18.194 34.3467 18.4369 33.75 18.4369V28.8074C33.75 30.3354 33.1574 31.8009 32.1025 32.8814C31.0476 33.9618 29.6168 34.5688 28.125 34.5688H7.875C6.38316 34.5688 4.95242 33.9618 3.89752 32.8814C2.84263 31.8009 2.25 30.3354 2.25 28.8074V18.4369C1.65326 18.4369 1.08097 18.194 0.65901 17.7619C0.237053 17.3297 0 16.7435 0 16.1323V13.8277C0 13.2165 0.237053 12.6303 0.65901 12.1981C1.08097 11.7659 1.65326 11.5231 2.25 11.5231H4.98825L11.4075 0.560295C11.4834 0.430442 11.5836 0.31718 11.7022 0.226979C11.8209 0.136779 11.9557 0.0714059 12.0991 0.0345962C12.2424 -0.00221353 12.3914 -0.00973923 12.5376 0.0124486C12.6838 0.0346364 12.8242 0.0861031 12.951 0.163909H12.9532ZM4.5 18.4369V28.8074C4.5 29.7242 4.85558 30.6035 5.48851 31.2518C6.12145 31.9001 6.97989 32.2643 7.875 32.2643H28.125C29.0201 32.2643 29.8786 31.9001 30.5115 31.2518C31.1444 30.6035 31.5 29.7242 31.5 28.8074V18.4369H4.5ZM2.25 13.8277V16.1323H33.75V13.8277H2.25ZM9 20.7414C9.29837 20.7414 9.58452 20.8628 9.7955 21.0789C10.0065 21.295 10.125 21.5881 10.125 21.8937V28.8074C10.125 29.113 10.0065 29.4061 9.7955 29.6222C9.58452 29.8383 9.29837 29.9597 9 29.9597C8.70163 29.9597 8.41548 29.8383 8.2045 29.6222C7.99353 29.4061 7.875 29.113 7.875 28.8074V21.8937C7.875 21.5881 7.99353 21.295 8.2045 21.0789C8.41548 20.8628 8.70163 20.7414 9 20.7414ZM13.5 20.7414C13.7984 20.7414 14.0845 20.8628 14.2955 21.0789C14.5065 21.295 14.625 21.5881 14.625 21.8937V28.8074C14.625 29.113 14.5065 29.4061 14.2955 29.6222C14.0845 29.8383 13.7984 29.9597 13.5 29.9597C13.2016 29.9597 12.9155 29.8383 12.7045 29.6222C12.4935 29.4061 12.375 29.113 12.375 28.8074V21.8937C12.375 21.5881 12.4935 21.295 12.7045 21.0789C12.9155 20.8628 13.2016 20.7414 13.5 20.7414ZM18 20.7414C18.2984 20.7414 18.5845 20.8628 18.7955 21.0789C19.0065 21.295 19.125 21.5881 19.125 21.8937V28.8074C19.125 29.113 19.0065 29.4061 18.7955 29.6222C18.5845 29.8383 18.2984 29.9597 18 29.9597C17.7016 29.9597 17.4155 29.8383 17.2045 29.6222C16.9935 29.4061 16.875 29.113 16.875 28.8074V21.8937C16.875 21.5881 16.9935 21.295 17.2045 21.0789C17.4155 20.8628 17.7016 20.7414 18 20.7414ZM22.5 20.7414C22.7984 20.7414 23.0845 20.8628 23.2955 21.0789C23.5065 21.295 23.625 21.5881 23.625 21.8937V28.8074C23.625 29.113 23.5065 29.4061 23.2955 29.6222C23.0845 29.8383 22.7984 29.9597 22.5 29.9597C22.2016 29.9597 21.9155 29.8383 21.7045 29.6222C21.4935 29.4061 21.375 29.113 21.375 28.8074V21.8937C21.375 21.5881 21.4935 21.295 21.7045 21.0789C21.9155 20.8628 22.2016 20.7414 22.5 20.7414ZM27 20.7414C27.2984 20.7414 27.5845 20.8628 27.7955 21.0789C28.0065 21.295 28.125 21.5881 28.125 21.8937V28.8074C28.125 29.113 28.0065 29.4061 27.7955 29.6222C27.5845 29.8383 27.2984 29.9597 27 29.9597C26.7016 29.9597 26.4155 29.8383 26.2045 29.6222C25.9935 29.4061 25.875 29.113 25.875 28.8074V21.8937C25.875 21.5881 25.9935 21.295 26.2045 21.0789C26.4155 20.8628 26.7016 20.7414 27 20.7414Z" fill="white"/>
</svg>
