<svg width="69" height="69" viewBox="0 0 69 69" fill="none" xmlns="http://www.w3.org/2000/svg">
<path d="M8.625 34.5H34.5V38.8125H8.625V34.5Z" fill="#EE6B4D"/>
<path d="M4.3125 23.7188H25.875V28.0312H4.3125V23.7188Z" fill="#EE6B4D"/>
<path d="M64.5129 35.8067L58.0441 20.7129C57.8781 20.325 57.6018 19.9943 57.2495 19.762C56.8973 19.5297 56.4845 19.406 56.0625 19.4062H49.5938V15.0938C49.5938 14.5219 49.3666 13.9734 48.9622 13.5691C48.5578 13.1647 48.0094 12.9375 47.4375 12.9375H12.9375V17.25H45.2813V44.3239C44.2987 44.8944 43.4389 45.6538 42.7513 46.5583C42.0637 47.4628 41.5619 48.4944 41.275 49.5938H27.7251C27.2003 47.5611 25.9522 45.7897 24.2147 44.6115C22.4772 43.4333 20.3697 42.9292 18.2872 43.1937C16.2046 43.4583 14.2901 44.4732 12.9023 46.0484C11.5146 47.6235 10.749 49.6507 10.749 51.75C10.749 53.8493 11.5146 55.8765 12.9023 57.4516C14.2901 59.0268 16.2046 60.0417 18.2872 60.3063C20.3697 60.5708 22.4772 60.0667 24.2147 58.8885C25.9522 57.7103 27.2003 55.9389 27.7251 53.9062H41.275C41.744 55.7568 42.8167 57.3982 44.3234 58.5706C45.8301 59.743 47.6847 60.3796 49.5938 60.3796C51.5029 60.3796 53.3575 59.743 54.8641 58.5706C56.3708 57.3982 57.4435 55.7568 57.9126 53.9062H62.5313C63.1031 53.9062 63.6516 53.6791 64.056 53.2747C64.4604 52.8703 64.6875 52.3219 64.6875 51.75V36.6562C64.6876 36.3641 64.6282 36.0751 64.5129 35.8067ZM19.4063 56.0625C18.5533 56.0625 17.7196 55.8096 17.0104 55.3357C16.3012 54.8618 15.7484 54.1883 15.422 53.4003C15.0956 52.6123 15.0102 51.7452 15.1766 50.9087C15.343 50.0721 15.7538 49.3037 16.3569 48.7006C16.96 48.0975 17.7284 47.6868 18.5649 47.5204C19.4015 47.354 20.2686 47.4394 21.0566 47.7658C21.8446 48.0922 22.5181 48.6449 22.992 49.3541C23.4658 50.0633 23.7188 50.8971 23.7188 51.75C23.7176 52.8934 23.2629 53.9896 22.4544 54.7981C21.6459 55.6066 20.5497 56.0614 19.4063 56.0625ZM49.5938 23.7188H54.6394L59.2624 34.5H49.5938V23.7188ZM49.5938 56.0625C48.7408 56.0625 47.9071 55.8096 47.1979 55.3357C46.4887 54.8618 45.9359 54.1883 45.6095 53.4003C45.2831 52.6123 45.1977 51.7452 45.3641 50.9087C45.5305 50.0721 45.9413 49.3037 46.5444 48.7006C47.1475 48.0975 47.9159 47.6868 48.7524 47.5204C49.589 47.354 50.4561 47.4394 51.2441 47.7658C52.0321 48.0922 52.7056 48.6449 53.1795 49.3541C53.6533 50.0633 53.9063 50.8971 53.9063 51.75C53.9051 52.8934 53.4504 53.9896 52.6419 54.7981C51.8334 55.6066 50.7372 56.0614 49.5938 56.0625ZM60.375 49.5938H57.9126C57.4376 47.7468 56.3632 46.1096 54.8577 44.939C53.3522 43.7683 51.5008 43.1303 49.5938 43.125V38.8125H60.375V49.5938Z" fill="#EE6B4D"/>
</svg>
