<svg width="70" height="72" viewBox="0 0 70 72" fill="none" xmlns="http://www.w3.org/2000/svg">
<path fill-rule="evenodd" clip-rule="evenodd" d="M35 65.5942C18.8912 65.5942 5.83331 52.2458 5.83331 35.7787C5.83331 19.3115 18.8912 5.96313 35 5.96313C51.1087 5.96313 64.1667 19.3115 64.1667 35.7787C64.1667 52.2458 51.1087 65.5942 35 65.5942ZM58.3333 35.7787C58.3333 29.4526 55.875 23.3856 51.4992 18.9125C47.1233 14.4393 41.1884 11.9262 35 11.9262C28.8116 11.9262 22.8767 14.4393 18.5008 18.9125C14.125 23.3856 11.6666 29.4526 11.6666 35.7787C11.6666 42.1047 14.125 48.1717 18.5008 52.6449C22.8767 57.1181 28.8116 59.6311 35 59.6311C41.1884 59.6311 47.1233 57.1181 51.4992 52.6449C55.875 48.1717 58.3333 42.1047 58.3333 35.7787ZM46.6667 32.7971C47.4402 32.7971 48.1821 33.1112 48.7291 33.6704C49.276 34.2295 49.5833 34.9879 49.5833 35.7787C49.5833 36.5694 49.276 37.3278 48.7291 37.8869C48.1821 38.4461 47.4402 38.7602 46.6667 38.7602H37.9167C34.7083 38.7602 32.0833 36.0768 32.0833 32.7971V20.8709C32.0833 20.0801 32.3906 19.3218 32.9376 18.7626C33.4846 18.2035 34.2264 17.8893 35 17.8893C35.7735 17.8893 36.5154 18.2035 37.0624 18.7626C37.6094 19.3218 37.9167 20.0801 37.9167 20.8709V32.7971H46.6667Z" fill="#EE6B4D"/>
</svg>
