<svg width="69" height="69" viewBox="0 0 69 69" fill="none" xmlns="http://www.w3.org/2000/svg">
<path d="M63.7778 34.0284L37.7411 8.00513L35.9959 6.25991C35.5983 5.86489 35.0605 5.64319 34.5 5.64319C33.9395 5.64319 33.4018 5.86489 33.0041 6.25991L5.22218 34.0284C4.81473 34.4342 4.49271 34.9176 4.27513 35.45C4.05756 35.9823 3.94884 36.5529 3.95539 37.128C3.98234 39.4999 5.95666 41.3933 8.32853 41.3933H11.1923V63.3399H57.8077V41.3933H60.7321C61.8844 41.3933 62.9692 40.9418 63.7846 40.1265C64.186 39.7263 64.5041 39.2505 64.7204 38.7265C64.9367 38.2026 65.0469 37.6409 65.0446 37.0741C65.0446 35.9286 64.5932 34.8437 63.7778 34.0284ZM38.2734 58.4883H30.7266V44.7422H38.2734V58.4883ZM52.9562 36.5417V58.4883H42.5859V43.125C42.5859 41.6359 41.3798 40.4297 39.8906 40.4297H29.1094C27.6202 40.4297 26.4141 41.6359 26.4141 43.125V58.4883H16.0439V36.5417H9.57511L34.5068 11.6303L36.0633 13.1869L59.4317 36.5417H52.9562Z" fill="#EE6B4D"/>
</svg>
