<svg width="69" height="71" viewBox="0 0 69 71" fill="none" xmlns="http://www.w3.org/2000/svg">
<path d="M45.2812 44.0844C44.7094 44.0844 44.1609 44.3166 43.7565 44.7299C43.3522 45.1433 43.125 45.704 43.125 46.2886C43.125 46.8732 43.3522 47.4338 43.7565 47.8472C44.1609 48.2606 44.7094 48.4928 45.2812 48.4928H53.9062C54.4781 48.4928 55.0266 48.2606 55.431 47.8472C55.8353 47.4338 56.0625 46.8732 56.0625 46.2886C56.0625 45.704 55.8353 45.1433 55.431 44.7299C55.0266 44.3166 54.4781 44.0844 53.9062 44.0844H45.2812Z" fill="#EE6B4D"/>
<path d="M4.3125 22.0422C4.3125 19.7038 5.2212 17.4612 6.8387 15.8077C8.45621 14.1543 10.65 13.2253 12.9375 13.2253H56.0625C58.35 13.2253 60.5438 14.1543 62.1613 15.8077C63.7788 17.4612 64.6875 19.7038 64.6875 22.0422V48.4928C64.6875 50.8312 63.7788 53.0738 62.1613 54.7273C60.5438 56.3807 58.35 57.3097 56.0625 57.3097H12.9375C10.65 57.3097 8.45621 56.3807 6.8387 54.7273C5.2212 53.0738 4.3125 50.8312 4.3125 48.4928V22.0422ZM60.375 22.0422C60.375 20.873 59.9206 19.7517 59.1119 18.925C58.3031 18.0982 57.2062 17.6338 56.0625 17.6338H12.9375C11.7938 17.6338 10.6969 18.0982 9.8881 18.925C9.07935 19.7517 8.625 20.873 8.625 22.0422V26.4506H60.375V22.0422ZM8.625 48.4928C8.625 49.662 9.07935 50.7833 9.8881 51.61C10.6969 52.4368 11.7938 52.9012 12.9375 52.9012H56.0625C57.2062 52.9012 58.3031 52.4368 59.1119 51.61C59.9206 50.7833 60.375 49.662 60.375 48.4928V30.8591H8.625V48.4928Z" fill="#EE6B4D"/>
</svg>
