<svg width="77" height="79" viewBox="0 0 77 79" fill="none" xmlns="http://www.w3.org/2000/svg">
<path d="M32.4844 9.83911C29.6157 9.84948 26.8674 11.019 24.8389 13.0926C22.8105 15.1662 21.6664 17.9756 21.6562 20.9081C21.6562 22.876 22.2025 24.7036 23.0856 26.2901C18.7519 28.8827 15.3591 32.5626 13.5352 36.8967H13.2344C13.0754 36.9004 12.9173 36.8711 12.7697 36.8106C12.6221 36.7501 12.488 36.6597 12.3756 36.5447C12.2631 36.4298 12.1746 36.2927 12.1155 36.1418C12.0563 35.9909 12.0276 35.8293 12.0312 35.6668C12.0312 35.2339 12.2478 34.8895 12.5582 34.6681L9.77419 30.671C8.98579 31.2314 8.34166 31.9784 7.89669 32.8483C7.45173 33.7182 7.21914 34.6852 7.21875 35.6668C7.21875 38.6924 9.42769 41.1718 12.2574 41.6638C12.1347 42.5247 12.0312 43.3832 12.0312 44.2761C12.0312 50.4058 15.2171 55.719 19.8516 59.6497C19.2692 62.1095 19.5604 64.7316 21.4301 66.6453C22.8104 68.0442 24.6754 68.8291 26.6191 68.8291C28.5629 68.8291 30.4279 68.0442 31.8082 66.6453L32.7106 65.7229C34.5898 66.0771 36.4788 66.4141 38.5 66.4141C40.5213 66.4141 42.4102 66.0771 44.2894 65.7229L45.1918 66.6453C46.5721 68.0442 48.4371 68.8291 50.3809 68.8291C52.3246 68.8291 54.1896 68.0442 55.5699 66.6453C57.4011 64.771 57.6754 62.2251 57.1484 59.8022C59.078 58.2002 60.7301 56.2777 62.0355 54.1152H67.375V34.4369H61.8863C61.0126 32.9872 59.9775 31.6458 58.8015 30.4398L60.1562 22.8292V19.6782H57.75C57.75 19.6782 51.9702 19.7766 47.0711 23.5229C45.7847 23.1436 44.4795 22.8348 43.1609 22.598C43.2572 22.0519 43.3125 21.4837 43.3125 20.9081C43.3125 14.8251 38.435 9.83911 32.4844 9.83911ZM32.4844 14.7587C35.8291 14.7587 38.5 17.489 38.5 20.9081C38.5 21.3312 38.4254 21.7346 38.3484 22.138C34.4671 22.1577 30.8024 22.9252 27.4481 24.2141C26.8092 23.2353 26.4684 22.0848 26.4688 20.9081C26.4688 17.489 29.1397 14.7587 32.4844 14.7587ZM54.7422 25.0602C54.7807 25.0504 54.7807 25.0676 54.8168 25.0602L53.9144 30.6685L53.6907 31.9771L54.7422 32.8996C56.3489 34.322 57.6759 36.0442 58.6523 37.9741L59.3285 39.3565H62.5625V49.1956H59.3285L58.6523 50.5805C57.4781 52.9517 55.6253 55.0376 53.2383 56.8037L51.5082 58.1123L52.5621 60.1121C53.1348 61.101 53.0313 62.321 52.1843 63.1869C51.9559 63.4303 51.6817 63.624 51.3782 63.7564C51.0747 63.8887 50.7481 63.9569 50.4182 63.9569C50.0882 63.9569 49.7616 63.8887 49.4581 63.7564C49.1546 63.624 48.8804 63.4303 48.652 63.1869L46.9219 61.4158L45.9449 60.4959L44.6648 60.8033C42.7109 61.2633 40.6343 61.4945 38.5 61.4945C36.4254 61.5022 34.3565 61.2704 32.3328 60.8033L31.0575 60.4959L30.0781 61.4183L28.348 63.1844C28.1196 63.4282 27.8452 63.6223 27.5415 63.7548C27.2378 63.8874 26.9109 63.9557 26.5806 63.9557C26.2504 63.9557 25.9235 63.8874 25.6198 63.7548C25.316 63.6223 25.0417 63.4282 24.8133 63.1844C24.4172 62.7924 24.1641 62.2738 24.0958 61.7146C24.0276 61.1554 24.1482 60.5892 24.4379 60.1097L25.4918 58.1123L23.7617 56.8062C19.4088 53.574 16.8438 49.1661 16.8438 44.2761C16.8438 35.0716 26.2522 27.0576 38.5 27.0576C41.4597 27.0576 44.2798 27.5102 46.8473 28.3637L48.125 28.8262L49.1789 27.9037C50.897 26.3369 53.0217 25.4932 54.7422 25.0602ZM52.9375 39.3565C51.6141 39.3565 50.5312 40.4634 50.5312 41.8163C50.5312 43.1692 51.6141 44.2761 52.9375 44.2761C54.2609 44.2761 55.3438 43.1692 55.3438 41.8163C55.3438 40.4634 54.2609 39.3565 52.9375 39.3565Z" fill="#EE6B4D"/>
</svg>
