<svg width="58" height="60" viewBox="0 0 58 60" fill="none" xmlns="http://www.w3.org/2000/svg">
<path d="M26.5306 4.51364C27.384 2.2129 30.6133 2.2129 31.4693 4.51364L36.9893 20.1445C37.376 21.1804 38.36 21.87 39.4586 21.87H53.024C55.5306 21.87 56.624 25.0594 54.6533 26.6214L45 35.5C44.5675 35.8398 44.2515 36.3109 44.0973 36.8457C43.943 37.3805 43.9584 37.9515 44.1413 38.4768L47.6666 53.7505C48.5253 56.2039 45.7466 58.3111 43.6453 56.8009L30.5333 48.2958C30.0843 47.9732 29.5488 47.8001 29 47.8001C28.4511 47.8001 27.9157 47.9732 27.4666 48.2958L14.3546 56.8009C12.256 58.3111 9.47463 56.2012 10.3333 53.7505L13.8586 38.4768C14.0415 37.9515 14.0569 37.3805 13.9027 36.8457C13.7484 36.3109 13.4324 35.8398 13 35.5L3.34663 26.6214C1.37329 25.0594 2.47196 21.87 4.97329 21.87H18.5386C19.0727 21.8719 19.5948 21.7078 20.0357 21.3997C20.4767 21.0916 20.8157 20.6539 21.008 20.1445L26.528 4.51364H26.5306Z" stroke="#EE6B4D" stroke-width="4" stroke-linecap="round" stroke-linejoin="round"/>
</svg>
